<?xml version="1.0" encoding="utf-8" ?><svg xmlns="http://www.w3.org/2000/svg" xmlns:xlink="http://www.w3.org/1999/xlink" width="731" height="554" viewBox="0 0 731 554"><path fill="#FEFEFE" d="M553.683 266.109C578.974 265.851 599.131 269.564 618.819 285.732C621.842 288.215 625.901 290.917 629.144 293.189L644.704 304.059C657.184 312.869 652.297 308.753 651.724 321.275C651.166 333.463 672.324 345.004 681.123 333.756C681.525 333.242 683.954 331.281 684.573 331.583C699.342 338.799 713.728 348.31 727.504 357.378C729.107 358.505 725.592 363.083 724.787 364.154C712.644 380.317 700.122 396.193 688.031 412.397C685.866 415.298 682.543 419.571 679.733 421.762C676.282 421.198 649.456 401.07 644.755 397.697C642.907 396.451 641.132 395.094 639.348 393.757C641.089 391.955 644.033 387.537 644.633 385.18C647.171 375.219 641.099 367.703 631.778 364.998C623.723 362.122 615.904 364.905 609.493 370.163C607.92 371.45 600.329 378.808 597.815 376.859C590.835 371.447 581.398 364.663 574.652 359.111C568.297 353.88 562.275 350.359 556.643 344.798C545.526 333.822 560.843 323.231 554.302 310.602C552.142 305.981 547.982 302.563 543.578 299.913C527.402 290.182 506.022 291.222 488.251 295.21C485.538 295.819 471.729 300.015 470.224 299.463C474.239 291.165 510.924 275.008 520.528 272.312C531.14 269.332 542.711 267.41 553.683 266.109Z"/><path fill="#FEFEFE" d="M543.362 357.551C546.933 358.969 555.93 367.449 559.368 370.186C562.942 373.031 573.231 380.604 574.553 384.458C573.524 388.106 549.007 415.969 545.151 420.505L502.42 471.314C488.196 488.388 473.856 505.366 459.403 522.246C452.689 530.126 446.287 538.247 439.293 545.905C435.041 550.561 429.655 553.138 423.381 550.996C419.503 549.672 417.728 547.533 414.873 544.843C412.17 543.296 397.542 528.655 393.876 525.402C389.41 520.827 377.106 510.687 376.287 504.508C375.686 499.967 388.828 490.117 392.207 487.254L415.621 467.396L507.37 388.462L533.656 365.708C536.517 363.218 540.881 360.093 543.362 357.551Z"/><path fill="#FEFEFE" d="M107.046 358.335C111.876 358.379 134.924 367.751 141.044 370.051L164.813 378.842L266.097 416.458C294.554 426.825 322.956 437.339 351.304 448.001C355.658 449.633 387.709 460.657 388.571 462.73C387.369 465.438 379.014 471.829 376.191 474.134C373.021 476.599 368.634 480.446 365.321 482.395C361.717 480.939 353.444 478.811 348.931 477.297L297.187 460.221L164.067 415.66L123.754 402.403C119.917 401.099 109.731 397.892 106.862 396.02C106.159 393.214 106.236 360.359 107.046 358.335Z"/><path fill="#FEFEFE" d="M181.182 124.381C194.25 124.008 206.305 126.895 216.955 134.736C218.736 136.048 221.562 138.396 221.784 140.772C222.184 145.049 205.502 194.162 203.006 196.813C201.268 198.659 198.168 200.481 195.619 200.542C190.668 200.66 183.033 196.984 177.799 195.854C169.962 194.161 162.078 194.343 154.107 194.551C141.664 195.724 132.324 201.121 121.941 207.326C121.162 207.792 120.545 207.755 119.714 207.614C119.603 206.281 127.393 189.374 128.647 186.605L141.444 158.347C143.73 153.234 148.382 141.073 151.778 137.252C158.087 130.15 171.769 125.376 181.182 124.381Z"/><path fill="#FEFEFE" d="M537.805 124.381C551.415 123.539 575.838 129.232 582.388 142.797C592.61 163.964 602.888 185.452 612.188 207.018C612.423 207.564 611.834 208.328 611.453 208.677C609.283 207.709 606.126 205.064 603.963 203.68C599.059 200.541 593.845 198.192 588.309 196.44C568.04 190.305 556.903 192.958 538.436 200.11C534.304 201.711 528.657 197.404 527.018 193.366C524.868 188.072 522.528 181.5 520.587 175.981C516.412 164.803 512.073 153.592 508.71 142.141C506.713 135.344 517.429 130.994 522.166 128.549C526.906 126.102 532.548 125.067 537.805 124.381Z"/><path fill="#FEFEFE" d="M97.7775 124.376C110.938 123.758 123.973 126.445 134.228 135.387C135.189 136.225 136.256 137.965 137.169 139.029C136.138 143.061 131.756 152.176 129.892 156.246C125.318 166.471 120.583 176.623 115.688 186.699C113.053 192.205 108.377 203.319 105.417 207.994C103.672 207.319 97.9794 203.253 96.0208 201.921C88.632 196.894 76.1476 192.83 67.1928 192.843C55.9441 192.4 45.9678 195.276 35.7344 200.021C33.5208 201.048 26.4943 205.334 24.8117 205.891C24.6108 204.317 31.9047 194.517 33.2202 192.555L50.0913 166.923C64.1587 145.403 69.5093 128.138 97.7775 124.376Z"/><path fill="#FEFEFE" d="M622.669 124.382C629.702 124.179 636.201 124.451 642.939 126.921C647.218 128.489 653.887 131.392 657.021 134.534C658.869 136.373 660.57 138.353 662.109 140.456C665.313 144.876 668.793 150.487 671.855 155.112C678.134 164.393 684.321 173.736 690.416 183.139C694.406 189.179 698.653 195.289 702.362 201.507C703.251 202.996 705.489 205.541 704.697 207.245C692.559 199.083 684.773 195.14 670.049 193.101C658.512 192.096 646.964 194.898 637.171 201.078C633.688 203.268 630.689 205.87 627.426 207.916L627.117 208.106C624.283 203.417 620.937 196.254 618.35 191.214C612.477 180.008 606.765 168.718 601.216 157.347C599.518 153.921 594.356 142.807 592.561 140.016C592.522 139.097 593.342 138.239 594.05 137.441C601.771 128.743 611.645 125.524 622.669 124.382Z"/><path fill="#FEFEFE" d="M668.415 204.693C673.077 204.392 677.758 204.705 682.337 205.626C686.488 206.451 697.406 209.343 699.189 212.536C700.826 215.467 700.04 239.236 699.328 241.479C692.766 242.022 682.405 241.708 675.57 241.699L635.105 241.69L612.11 241.699C609.73 241.707 599.152 241.871 597.79 241.318C591.278 238.675 581.544 231.993 575.576 228.086C568.437 224.023 554.94 213.416 547.598 211.713L547.318 211.65L546.95 211.057C548.165 207.588 555.04 207.216 558.036 206.541C569.079 204.054 581.807 204.638 592.14 209.785C604.127 215.756 609.967 222.135 624.428 221.871C638.955 221.605 643.454 213.013 655.581 207.462C658.143 206.321 665.295 205.19 668.415 204.693Z"/><path fill="#FEFEFE" d="M55.7987 204.685C63.1125 204.387 74.7847 206.646 80.8914 210.258C91.8472 216.737 95.862 221.731 109.508 222.141C124.324 222.586 130.361 214.382 142.672 209.027C148.014 206.91 155.859 205.603 161.508 206.039C165.164 206.321 179.171 208.238 181.049 210.772C179.21 212.215 175.595 214.082 173.442 215.469C168.436 218.695 163.046 221.814 158.169 225.217C152.798 228.727 137.467 239.452 132.401 241.037C127.503 242.57 90.6844 241.729 83.1999 241.726C66.538 241.718 47.9442 242.464 31.4929 241.54C30.1508 235.303 29.6277 218.721 31.6317 212.832C36.8615 206.942 48.5732 205.707 55.7987 204.685Z"/><path fill="#FEFEFE" d="M513.789 60.8244C528.995 60.1292 548.584 65.4016 555.365 80.5572C558.657 87.9166 561.759 95.5086 564.873 102.958C567.925 110.26 571.954 117.998 574.237 125.516C563.56 119.39 555.309 115.113 542.654 114.37C530.213 113.023 516.502 118.103 506.897 125.684C505.836 126.521 504.546 127.839 503.225 127.9C502.163 127.288 501.78 126.801 501.374 125.578C495.886 109.042 491.985 91.8366 486.228 75.3917C493.991 65.9748 501.987 62.569 513.789 60.8244Z"/><path fill="#FEFEFE" d="M436.462 60.8071C448.981 60.4683 459.33 62.1654 469.414 70.3923C473.066 73.3717 476.924 78.3384 477.673 83.0432C478.716 89.5954 490.467 121.323 489.297 125.169C487.425 124.602 483.887 122.487 482.004 121.486C475.795 118.184 469.532 115.785 462.499 114.936C448.988 112.499 435.785 115.987 424.099 122.786C422.082 121.785 416.376 119.129 415.845 116.84C412.787 103.639 410.651 89.8237 408.812 76.3859C408.632 75.0728 409.349 74.2707 410.068 73.2557C416.566 65.3553 426.681 62.1939 436.462 60.8071Z"/><path fill="#FEFEFE" d="M279.695 60.8185C292.922 59.0292 308.779 65.8941 317.189 76.077C316.461 88.8252 312.869 102.351 312.067 115.209C311.926 117.481 311.5 122.898 309.94 124.494C309.264 124.701 308.638 124.821 307.967 124.497C302.171 121.7 296.635 118.429 290.471 116.449C285.097 114.723 279.836 114.087 274.214 114.039C258.342 114.095 250.972 118.669 237.896 125.82C239.744 116.72 243.013 107.886 245.443 98.9215C247.363 92.0651 248.785 85.0959 250.812 78.2697C252.746 71.7552 257.684 68.5428 263.407 65.4973C268.645 62.7097 273.94 61.6459 279.695 60.8185Z"/><path fill="#FEFEFE" d="M201.784 60.8269C215.45 59.4725 232.041 64.3768 239.683 76.4813C239.33 80.2427 237.571 86.1467 236.53 89.9439L231.808 107.352C230.312 112.976 227.992 124.101 226.082 129.02C214.915 121.251 212.647 117.639 197.508 114.675C186.856 112.983 175.729 114.968 165.981 119.488C162.444 121.128 159.022 123.484 155.499 124.899C158.938 114.003 164.169 103.932 168.248 93.5325C175.839 74.1838 179.139 64.7771 201.784 60.8269Z"/><path fill="#FEFEFE" d="M590.614 60.4808C599.692 59.6195 615.376 64.7232 620.6 71.2636C624.865 76.6031 653.915 120.156 653.881 123.676C652.729 124.012 648.09 121.413 646.854 120.737C638.605 116.227 630.875 114.547 621.541 114.557C603.952 115.553 601.158 120.115 587.861 128.582C586.282 126.048 584.739 122.092 583.477 119.268L575.91 102.414C573.765 97.6533 565.008 79.6318 564.196 75.9141C565.892 66.1827 582.261 61.4212 590.614 60.4808Z"/><path fill="#FEFEFE" d="M131.991 60.8393C143.184 60.2893 159.618 64.0613 164.416 75.5073C159.723 86.8714 154.968 98.2094 150.15 109.521C148.146 114.223 144.427 123.583 141.929 127.318C141.676 127.457 141.423 127.595 141.17 127.734C140.014 127.343 137.416 125.357 136.507 124.71C126.16 117.34 119.963 115.502 107.524 114.666C93.9041 113.882 83.7811 119.112 72.6176 125.748C74.9276 120.074 85.4008 105.189 89.2169 99.3041C94.5746 91.0423 100.606 81.0747 106.384 73.1974C111.491 66.2342 123.358 61.824 131.991 60.8393Z"/><path fill="#FEFEFE" d="M495.18 2.65278C500.191 2.10802 506.782 2.84353 511.554 4.19445C515.493 5.27364 519.203 7.06225 522.501 9.47251C531.767 16.1267 532.021 21.6839 536.12 31.7804C538.475 37.8169 541.112 43.9938 543.44 50.0051C543.669 50.5958 547.499 61.4602 547.5 61.1888C546.398 61.0439 538.801 57.2719 537.142 56.5607C531.609 54.1341 525.755 52.5165 519.76 51.7579C508.875 51.1762 499.508 53.1042 490.306 59.3138C488.339 60.641 485.611 63.4552 483.397 63.7547C483.461 62.9502 482.414 60.8455 482.121 59.9363C479.078 50.4881 476.541 40.2488 473.868 30.7465C472.947 27.4713 469.13 17.4582 470.405 15.3823C475.041 7.83093 487.904 3.71149 495.18 2.65278Z"/><path fill="#FEFEFE" d="M428.92 2.67323C437.765 2.0216 449.147 6.58496 455.751 12.2242C459.799 15.6812 461.073 18.5917 462.252 23.661C464.179 31.9436 466.54 40.0987 468.769 48.2992C469.921 52.6515 471.747 57.9242 472.048 62.3591C470.437 61.7266 466.166 59.0609 464.253 58.016C457.534 54.4067 450.12 52.2781 442.509 51.7732C427.415 50.5083 418.437 55.5532 406.585 63.2084C403.013 50.421 402.582 35.2364 400.26 22.0806C398.799 13.8047 408.158 9.80691 414.075 6.24321C418.043 3.85374 424.325 3.14023 428.92 2.67323Z"/><path fill="#FEFEFE" d="M289.644 2.66307C301.926 1.68527 315.633 7.91351 322.877 17.896C323.066 21.2656 317.994 61.6936 317.237 63.2091C316.331 63.1414 309.364 57.7551 307.436 56.8927C302.423 54.651 298.347 53.0981 292.953 52.039C282.627 50.7498 272.382 51.834 263.413 57.1108C261.697 58.1201 256.878 60.6591 255.071 60.8809C254.971 61.087 256.269 54.6134 256.391 54.0724C259.081 42.5096 260.808 30.5141 263.719 19.0265C266.406 8.42177 280.122 3.83581 289.644 2.66307Z"/><path fill="#FEFEFE" d="M220.28 3.03042C229.629 2.43081 238.418 4.22794 245.887 9.93907C249.714 12.8657 255.787 16.0812 253.532 21.4295C251.053 27.313 245.062 62.3295 242.645 65.2394C234.813 57.895 230.239 54.9872 219.468 52.1844C205.153 50.3876 192.457 53.5455 180.976 62.3597C181.016 62.1459 181.055 61.9322 181.094 61.7184C182.653 55.2435 185.226 49.0087 187.826 42.726C191.227 34.5063 194.648 21.1375 199.11 13.9128C202.899 7.77755 213.371 4.11336 220.28 3.03042Z"/><path fill="#FEFEFE" d="M357.164 3.03344C364.852 2.93312 369.676 3.76739 376.652 7.32873C380.999 9.54828 388.701 14.8428 389.908 19.8848C391.124 25.6723 391.701 32.7273 392.281 38.576C392.636 42.1496 395.389 60.0007 394.273 62.0062C392.532 62.497 390.032 60.1041 387.974 59.0296C381.327 55.56 376.51 53.5624 369.137 52.0848C358.32 50.5985 349.343 52.2296 339.304 56.7276C336.516 57.9768 333.25 60.5315 330.196 61.2776C329.596 60.0936 332.15 21.3113 332.463 16.7993C337.893 8.90933 347.738 3.92695 357.164 3.03344Z"/><path fill="#FEFEFE" d="M157.561 3.00017C172.017 2.97429 178.211 9.02807 188.349 18.597C187.371 21.6647 185.789 25.208 184.499 28.2032C179.334 40.1959 174.852 52.697 169.436 64.5593C161.141 57.9614 156.42 53.8456 145.149 52.2967C132.154 50.3895 120.649 55.9497 109.759 61.8332C111.304 57.8176 121.269 43.1017 124.002 38.7604C128.815 31.1162 134.361 22.2678 139.468 14.7119C143.707 8.44094 149.956 4.18869 157.561 3.00017Z"/><path fill="#FEFEFE" d="M567.02 3.00597C585.751 2.35651 590.345 17.5389 599.379 31.151C602.272 35.51 615.803 55.9138 616.373 59.1048C616.269 59.2367 616.166 59.3686 616.062 59.5005C614.004 58.9363 608.825 56.3834 607.179 55.7665C598.74 52.6019 592.718 51.4378 583.859 52.5019C578.947 53.2814 574.218 54.9559 569.91 57.4423C567.775 58.6692 565.685 60.0588 563.803 61.646C563.291 62.0772 560.085 65.0448 559.565 63.8992C553.433 50.3898 547.729 36.5211 541.601 22.9492C540.577 20.6834 540.079 18.5812 542.029 16.6298C548.691 10.1371 557.556 3.90964 567.02 3.00597Z"/><path fill="#FEFEFE" d="M356.425 60.833C363.265 60.4437 370.117 61.3149 376.642 63.403C386.857 66.6036 398.285 72.5262 398.02 83.6615C397.922 87.8036 401.734 107.263 400.791 109.858C397.834 109.989 372.309 91.2389 368.018 88.2432C367.063 87.7458 365.169 86.422 364.187 85.7719C361.429 87.286 358.495 89.6462 355.756 91.3726C346.743 97.055 338.272 103.454 329.319 109.219C327.922 110.118 326.491 111.052 324.862 110.694C326.178 102.202 327.091 93.7539 327.484 85.1709C327.599 82.6623 327.668 78.9456 328.172 76.5774C328.51 75.0604 329.168 73.6333 330.103 72.3922C335.087 65.7815 348.329 62.075 356.425 60.833Z"/><path fill="#FEFEFE" d="M369.881 245.668L416.732 245.566C416.681 256.135 416.697 266.704 416.779 277.273C416.797 281.516 417.07 288.705 416.763 292.687L368.441 292.695L368.413 263.579C368.407 258.159 368.24 251.875 368.558 246.577L369.881 245.668Z"/><path fill="#FEFEFE" d="M368.357 300.926C384.505 301.302 400.981 300.701 417.143 301.087C416.482 306.085 416.769 312.078 416.731 317.184C416.659 327.034 417.024 337.065 416.677 346.901L416.326 347.514C414.175 347.84 404.592 347.634 401.594 347.633L368.564 347.686C368.088 332.626 368.455 316.162 368.357 300.926Z"/><path fill="#FEFEFE" d="M312.75 245.63L359.58 245.588C359.426 260.402 360.201 278.402 359.609 292.775C357.3 293.013 348.07 292.741 345.189 292.733C334.276 292.656 323.361 292.671 312.448 292.779C312.32 287.373 311.767 248.371 312.75 245.63Z"/><path fill="#FEFEFE" d="M312.376 300.916C327.26 301.401 344.547 300.967 359.652 300.946C359.354 306.559 359.506 313.509 359.513 319.189C359.49 328.621 359.547 338.054 359.685 347.486C356.991 347.838 347.471 347.638 344.466 347.635C333.775 347.591 323.084 347.607 312.393 347.682L312.376 300.916Z"/><path fill="#FEFEFE" d="M455.645 124.384C465.475 123.967 474.94 126.779 483.612 131.147C489.562 134.074 494.226 136.814 496.457 143.484C500.966 156.96 506.157 170.446 510.6 183.927C506.665 182.312 499.958 177.444 496.609 174.911C485.246 166.638 471.599 158.525 459.854 150.365C450.848 144.108 440.548 136.775 431.023 131.581C437.882 126.77 447.466 125.334 455.645 124.384Z"/><path fill="#FEFEFE" d="M268.225 124.39C277.39 124.229 286.307 126.602 294.847 130.017C295.909 130.442 296.688 130.978 297.077 132.049C295.026 133.83 291.259 136.138 288.876 137.738L273.469 148.054C262.028 155.644 250.222 164.092 238.718 171.321C235.426 173.315 223.208 182.174 220.748 182.142L220.467 181.633C222.345 176.584 224.279 171.093 226.221 165.973C229.419 157.54 233.074 143.795 237.826 136.613C240.017 133.302 253.361 127.318 257.426 126.269C261.131 125.313 264.292 124.751 268.225 124.39Z"/><path fill="#FEFEFE" d="M18.9825 334.416C29.817 327.262 40.7231 320.218 51.699 313.283L99.1456 282.809L238.6 193.169C265.554 175.425 292.625 157.86 319.811 140.474L346.456 123.128C352.418 119.299 358.549 115.197 364.895 112.074C369.986 115.732 376.018 119.291 381.303 122.722C394.468 131.322 407.699 139.822 420.994 148.22L521.436 213.709L560.587 238.694C563.919 240.813 582.179 251.639 582.755 254.02C579.221 253.958 575.485 253.551 572.026 253.439C552.2 252.783 532.873 253.502 514.193 260.946C509.288 262.333 506.151 265.155 501.339 261.989C459.148 234.223 417.132 206.143 374.657 178.794C371.519 176.773 368.29 174.484 364.916 172.915C363.824 172.911 357.831 176.99 356.594 177.794L122.092 333.125C119.285 335.578 83.0359 359.091 81.0724 359.702C76.7263 361.056 17.0227 360.625 9.21231 360.067C7.01938 359.91 3.53868 359.763 2.02916 357.95C1.81167 357.689 1.62115 357.411 1.43301 357.129C0.802553 353.941 1.17971 351.39 1.67152 348.215C3.23383 343.968 14.9024 336.273 18.9825 334.416Z"/></svg>